<?xml version="1.0" encoding="UTF-8"?><svg id="Layer_2" xmlns="http://www.w3.org/2000/svg" viewBox="0 0 676.44 649.64"><defs><style>.cls-1{fill:#fff;}.cls-1,.cls-2{fill-rule:evenodd;stroke-width:0px;}.cls-2{fill:#3da6dd;}</style></defs><g id="Layer_5"><path class="cls-1" d="M527.75,70.74H230.38l-148.68,254.13,148.68,254.12h297.37l148.69-254.12-148.69-254.13ZM558.05,246.55l-14.66,24.99h-133.76l-66.27-113.31,14.45-24.65h-2.94s137.1,0,137.1,0l66.08,112.96ZM220.56,211.51h31.47s66.27,113.31,66.27,113.31l-66.27,113.31-31.56-.05-66.22-113.21,66.3-113.36ZM246.77,483.03l30.96.02,92.58-158.23-92.58-158.23-30.87-.03,19.29-32.98h39.75l-14.54,24.65,92.57,158.23h185.16l14.89-25.51-13.04-22.37,32.93,56.29-22.7,38.8,3.35-5.76-14.46-24.73h-185.15l-92.58,158.23,14.51,24.73,23.04.02h-63.74l-19.38-33.14ZM491.97,516.17h-133.16l-14.48-24.75,66.27-113.3h133.76l14.27,24.09-66.66,113.96Z"/><polygon class="cls-2" points="620.75 419.95 594.85 464.35 610.64 491.42 544.37 604.72 410.61 604.72 358.83 516.19 306.84 516.15 384.91 649.64 570.07 649.64 662.65 491.42 620.75 419.95"/><polygon class="cls-2" points="0 324.82 92.57 483.05 174.23 483.12 147.94 438.17 118.27 438.13 52 324.82 118.27 211.53 220.51 211.51 246.73 166.57 92.57 166.59 0 324.82"/><polygon class="cls-2" points="409.63 44.93 543.4 44.93 609.67 158.23 558.08 246.5 583.98 290.95 661.67 158.23 569.09 0 383.94 0 342.56 70.73 394.54 70.73 409.63 44.93"/></g></svg>