<svg width="44" height="37" viewBox="0 0 44 37" fill="none" xmlns="http://www.w3.org/2000/svg">
<path d="M28.6 24.6667H31.9C32.45 24.6667 33 24.05 33 23.4333V10.4833C33 9.86667 32.45 9.25 31.9 9.25H28.6C28.05 9.25 27.5 9.86667 27.5 10.4833V23.4333C27.5 24.05 28.05 24.6667 28.6 24.6667ZM36.85 24.6667H40.15C40.7 24.6667 41.25 24.05 41.25 23.4333V1.23333C41.25 0.616667 40.7 0 40.15 0H36.85C36.3 0 35.75 0.616667 35.75 1.23333V23.4333C35.75 24.05 36.3 24.6667 36.85 24.6667ZM12.1 24.6667H15.4C15.95 24.6667 16.5 24.05 16.5 23.4333V16.65C16.5 16.0333 15.95 15.4167 15.4 15.4167H12.1C11.55 15.4167 11 16.0333 11 16.65V23.4333C11 24.05 11.55 24.6667 12.1 24.6667ZM20.35 24.6667H23.65C24.2 24.6667 24.75 24.05 24.75 23.4333V4.31667C24.75 3.7 24.2 3.08333 23.65 3.08333H20.35C19.8 3.08333 19.25 3.7 19.25 4.31667V23.4333C19.25 24.05 19.8 24.6667 20.35 24.6667ZM42.625 30.8333H5.5V1.54167C5.5 0.689896 4.88469 0 4.125 0H1.375C0.615312 0 0 0.689896 0 1.54167V33.9167C0 35.6192 1.23148 37 2.75 37H42.625C43.3847 37 44 36.3101 44 35.4583V32.375C44 31.5232 43.3847 30.8333 42.625 30.8333Z" fill="#38BB64"/>
</svg>
