<svg xmlns="http://www.w3.org/2000/svg" xmlns:xlink="http://www.w3.org/1999/xlink" version="1.1" id="Layer_1" x="0px" y="0px" width="100%" viewBox="0 0 2080 2102" enable-background="new 0 0 2080 2102" xml:space="preserve">
<path fill="#BEE1F3" opacity="1.000000" stroke="none" d=" M1088.908203,2104.000000   C1088.000000,2104.000000 1087.933960,2103.026367 1088.004517,2102.543945   C1094.123779,2102.015381 1100.172363,2101.968994 1107.128418,2101.994873   C1108.035889,2102.066895 1107.958008,2103.032227 1107.979004,2103.516113   C1101.938843,2104.000000 1095.877563,2104.000000 1088.908203,2104.000000  z"/>
<path fill="#BEE1F3" opacity="1.000000" stroke="none" d=" M997.023010,2102.010254   C997.924561,2102.061279 998.065491,2103.026855 998.032715,2103.513428   C991.938782,2104.000000 985.877625,2104.000000 978.908203,2104.000000   C978.000000,2104.000000 978.042175,2103.031982 978.003174,2102.549316   C984.016602,2102.031006 990.069031,2101.995117 997.023010,2102.010254  z"/>
<path fill="#BEE1F3" opacity="1.000000" stroke="none" d=" M2082.000000,1019.091797   C2078.038086,1014.217163 2080.826660,1007.739441 2080.238770,1000.725342   C2080.369629,999.827942 2081.194824,999.818481 2081.597412,999.909241   C2082.000000,1006.061218 2082.000000,1012.122375 2082.000000,1019.091797  z"/>
<path fill="#BEE1F3" opacity="1.000000" stroke="none" d=" M2080.782227,1128.177002   C2080.501953,1121.813110 2080.634521,1115.453857 2081.383301,1108.547363   C2082.000000,1114.061157 2082.000000,1120.122437 2082.000000,1127.091797   C2082.000000,1128.000000 2081.194824,1128.181641 2080.782227,1128.177002  z"/>
<path fill="#FAFAFA" opacity="1.000000" stroke="none" d=" M1773.974609,460.011963   C1774.201294,460.141296 1774.478271,460.227966 1774.755249,460.314636   C1774.474243,460.399506 1774.193115,460.484375 1774.019043,460.226624   C1774.125854,459.884033 1774.025024,459.969269 1773.974609,460.011963  z"/>
<path fill="#FCFCFD" opacity="1.000000" stroke="none" d=" M978.920837,1501.328857   C917.025757,1501.362671 855.129944,1501.265503 793.236694,1501.619141   C786.535400,1501.657349 784.067627,1498.369385 781.247437,1493.531006   C750.772644,1441.248657 720.150940,1389.052124 688.949097,1335.641479   C682.757935,1324.737793 677.305481,1314.954346 671.589539,1305.327271   C662.187622,1289.492065 652.614929,1273.758179 642.841064,1257.281494   C605.168030,1192.546875 567.768127,1128.512329 530.224426,1064.231567   C543.104309,1042.178345 555.858459,1020.373169 568.580933,998.549683   C593.543152,955.730774 618.487793,912.901733 644.403381,869.933960   C686.504517,869.826965 727.641968,869.862976 768.467712,870.571655   C730.570801,935.575134 692.985535,999.905884 655.363037,1064.300293   C693.434326,1129.382080 731.200989,1193.943115 768.737000,1258.109863   C787.609619,1258.109863 805.513245,1258.109863 823.388855,1258.109863   C825.138916,1255.201050 826.707092,1252.656372 828.216248,1250.077026   C862.839966,1190.895996 897.353271,1131.649902 932.226868,1072.616577   C935.950439,1066.313477 935.796997,1061.793579 932.137695,1055.594238   C897.285278,996.549011 862.759583,937.310852 828.122070,878.138672   C826.472290,875.320312 824.654114,872.600586 822.839905,869.716553   C804.850220,869.716553 787.211121,869.716553 769.760742,869.025452   C782.187195,846.990723 794.492371,825.685303 806.601379,804.268921   C808.829346,800.328552 810.262756,795.939087 812.335205,791.336914   C813.534790,790.608704 814.462097,790.300659 815.903931,790.735596   C833.363159,791.478577 850.307922,791.478577 866.802246,791.478577   C868.700256,794.414124 870.037537,796.316040 871.207642,798.315857   C921.657898,884.538879 972.011719,970.818726 1022.707886,1056.896851   C1026.227539,1062.873047 1025.365601,1066.816284 1022.213928,1072.182739   C972.128418,1157.461670 922.218018,1242.843384 872.258728,1328.196655   C870.753479,1330.768311 869.154541,1333.285400 867.399536,1336.154541   C858.647156,1336.154541 850.005127,1336.126953 841.363342,1336.162354   C832.946045,1336.196777 824.529053,1336.295776 814.966125,1336.376099   C817.020691,1340.246948 818.166870,1342.587158 819.471680,1344.835083   C827.161438,1358.082520 835.205261,1371.137817 842.463013,1384.616943   C845.879700,1390.962280 849.952026,1393.387939 857.282166,1393.243286   C876.577393,1392.862305 895.891296,1393.427002 915.818726,1393.697021   C916.854919,1393.822510 917.270203,1393.865967 918.029480,1394.522461   C936.981873,1426.921997 955.626465,1458.687500 974.145752,1490.525879   C976.113281,1493.908325 977.346863,1497.717529 978.920837,1501.328857  z"/>
<path fill="#FEFEFE" opacity="1.000000" stroke="none" d=" M815.389404,789.992554   C814.462097,790.300659 813.534790,790.608704 811.397400,791.430176   C773.419312,791.961304 736.651428,791.992065 699.883484,791.969666   C697.255981,791.968079 694.628662,791.577820 691.950745,790.857666   C691.847473,790.008850 691.794800,789.670776 691.742188,789.332764   C692.895996,786.969604 693.902466,784.520447 695.225159,782.255981   C723.928040,733.118164 752.784729,684.069458 781.238464,634.787964   C784.570801,629.016541 788.145935,627.241455 794.598267,627.264587   C855.544983,627.482971 916.492981,627.348633 979.289978,627.426025   C992.752686,627.596741 1004.366516,627.756775 1015.979187,627.695312   C1033.881348,627.600525 1051.782715,627.353882 1070.657715,627.278381   C1146.862915,627.385132 1222.094971,627.385132 1297.487183,627.385132   C1335.379272,692.166992 1373.004395,756.492310 1410.629639,821.545715   C1409.460815,824.977905 1408.552490,827.833313 1407.083008,830.362915   C1389.413696,860.781067 1371.682861,891.163574 1353.890747,921.510010   C1352.402710,924.048096 1350.353027,926.256897 1348.216309,927.937012   C1310.418701,863.301025 1272.968872,799.346802 1235.913086,736.065308   C1158.013428,736.065308 1081.458496,736.065308 1004.928284,736.065308   C998.174194,747.557007 991.980042,758.994324 984.872437,769.832520   C980.972290,775.779724 981.664612,780.168945 985.101746,785.999451   C1020.254028,845.628418 1055.104492,905.435303 1090.121338,965.144409   C1091.747192,967.916809 1094.148315,970.234436 1096.131592,973.635864   C1095.372559,977.685486 1095.388428,981.270752 1093.852783,983.975098   C1083.284790,1002.584961 1072.317017,1020.967529 1061.680420,1039.539185   C1059.940430,1042.577271 1059.200439,1046.188232 1057.235474,1049.722412   C1049.766724,1051.694214 1047.938477,1046.517090 1045.429321,1042.227905   C995.333313,956.588318 945.222595,870.957397 895.131042,785.315247   C893.642944,782.771057 892.329346,780.124756 890.911316,777.483276   C898.956055,763.722778 906.766174,750.363586 915.040649,736.210083   C891.328674,736.210083 869.169006,736.210083 847.341431,736.210083   C836.469543,754.510010 825.929443,772.251282 815.389404,789.992554  z"/>
<path fill="#FFFFFF" opacity="1.000000" stroke="none" d=" M1461.023682,907.678711   C1475.573853,932.294495 1490.163940,956.886780 1504.662964,981.532654   C1519.171387,1006.194214 1533.286865,1031.094360 1548.241211,1055.481323   C1552.394653,1062.254639 1551.804810,1066.919189 1547.951904,1073.423096   C1517.767456,1124.374023 1487.981812,1175.561401 1457.262695,1227.666626   C1449.722290,1240.139648 1442.907837,1251.573120 1436.284058,1263.116211   C1428.193359,1277.215576 1420.262695,1291.406738 1411.815674,1306.130005   C1373.330811,1371.584717 1335.293335,1436.467773 1297.226562,1501.400635   C1292.967651,1501.400635 1289.313599,1501.400757 1285.659546,1501.400757   C1245.667114,1501.400757 1205.674561,1501.370972 1165.682129,1501.410156   C1134.358276,1501.440918 1103.034302,1501.556885 1071.294434,1501.144043   C1068.803589,1497.661255 1066.527100,1494.787842 1064.686890,1491.657959   C1052.880615,1471.578613 1041.179321,1451.437378 1029.423828,1431.328125   C1023.042542,1420.411865 1016.618103,1409.520752 1010.223450,1398.612427   C1009.039001,1396.591919 1007.631775,1394.510620 1011.957886,1393.010986   C1083.877197,1393.005981 1154.725464,1392.847778 1225.571777,1393.170654   C1233.354370,1393.206177 1237.277954,1390.642090 1241.097290,1384.045654   C1275.568604,1324.508667 1310.450562,1265.209351 1345.164307,1205.812500   C1346.994141,1202.681641 1348.394409,1199.299927 1350.637939,1196.017334   C1355.256470,1196.324463 1356.976685,1193.718384 1358.787109,1190.724609   C1365.247559,1180.041138 1372.070068,1169.575806 1378.480469,1158.863281   C1384.218994,1149.273560 1389.577148,1139.456787 1395.140015,1129.761230   C1397.010498,1126.500977 1398.423218,1123.262817 1396.062256,1119.045166   C1406.716553,1100.883423 1417.188354,1083.380127 1428.302490,1065.837891   C1429.601562,1064.954346 1430.258545,1064.109619 1430.915527,1063.264893   C1429.750488,1062.912964 1428.585327,1062.561035 1426.881348,1061.815796   C1416.199829,1043.693848 1406.057251,1025.965210 1395.948486,1007.521545   C1395.982056,1005.853271 1395.981812,1004.900085 1396.135010,1003.266724   C1402.798828,991.348755 1409.222046,980.059265 1415.838867,968.884460   C1427.869629,948.566345 1440.015503,928.316406 1453.004639,908.024780   C1456.271851,907.900574 1458.647827,907.789612 1461.023682,907.678711  z"/>
<path fill="#3DA5DA" opacity="1.000000" stroke="none" d=" M1010.886230,1392.998535   C1007.631775,1394.510620 1009.039001,1396.591919 1010.223450,1398.612427   C1016.618103,1409.520752 1023.042542,1420.411865 1029.423828,1431.328125   C1041.179321,1451.437378 1052.880615,1471.578613 1064.686890,1491.657959   C1066.527100,1494.787842 1068.803589,1497.661255 1071.319092,1501.893677   C1078.539673,1514.961426 1085.641846,1526.620117 1091.957031,1538.690552   C1094.908447,1544.331543 1098.780273,1545.686401 1104.687744,1545.673462   C1175.596191,1545.517822 1246.505493,1545.502563 1317.413696,1545.698364   C1323.524414,1545.715210 1326.911011,1543.675171 1329.951294,1538.398682   C1349.719238,1504.090454 1369.842407,1469.986816 1389.833740,1435.807251   C1405.121338,1409.669800 1420.382080,1383.516846 1435.666382,1357.377563   C1437.515625,1354.214966 1439.897339,1351.125122 1437.560059,1347.254761   C1429.156250,1333.338623 1420.699707,1319.454468 1412.262939,1305.558228   C1420.262695,1291.406738 1428.193359,1277.215576 1436.284058,1263.116211   C1442.907837,1251.573120 1449.722290,1240.139648 1457.023315,1228.335205   C1479.655396,1265.646851 1501.555786,1303.376831 1523.924805,1340.826782   C1527.983887,1347.622437 1528.461792,1352.704346 1524.261719,1359.801270   C1488.646851,1419.981934 1453.462891,1480.417480 1418.139038,1540.770508   C1403.505005,1565.773804 1388.685425,1590.671021 1374.330811,1615.833496   C1371.433472,1620.912231 1368.170044,1622.565308 1362.491089,1622.556519   C1261.544922,1622.401367 1160.598145,1622.356445 1059.652466,1622.637939   C1052.750366,1622.657349 1049.575562,1619.774902 1046.516235,1614.499268   C1025.802368,1578.779175 1004.918030,1543.157837 984.038147,1507.534424   C982.892395,1505.579468 981.294434,1503.889648 979.413940,1501.702637   C977.346863,1497.717529 976.113281,1493.908325 974.145752,1490.525879   C955.626465,1458.687500 936.981873,1426.921997 918.990723,1394.430420   C936.490540,1393.665283 953.373718,1393.670898 970.255432,1393.521606   C981.489380,1393.422241 992.721375,1393.101807 1004.393188,1393.046265   C1005.440002,1393.031738 1005.991638,1392.743530 1006.970337,1392.276611   C1008.597839,1392.469971 1009.742004,1392.734253 1010.886230,1392.998535  z"/>
<path fill="#3CA4DA" opacity="1.000000" stroke="none" d=" M1452.113281,908.037964   C1440.015503,928.316406 1427.869629,948.566345 1415.838867,968.884460   C1409.222046,980.059265 1402.798828,991.348755 1395.484863,1003.325562   C1393.819824,1003.956238 1392.958252,1003.847900 1392.003418,1003.050720   C1389.441406,998.025391 1387.039185,993.649353 1384.492432,989.359192   C1373.803589,971.352478 1363.071411,953.371582 1352.221191,934.746094   C1350.812988,933.052307 1349.538818,931.993469 1348.168823,930.536377   C1348.046387,929.570007 1348.210083,929.063477 1348.564209,928.618652   C1350.353027,926.256897 1352.402710,924.048096 1353.890747,921.510010   C1371.682861,891.163574 1389.413696,860.781067 1407.083008,830.362915   C1408.552490,827.833313 1409.460815,824.977905 1411.257568,821.267700   C1420.650513,806.246033 1429.415649,792.230408 1438.004761,778.496155   C1436.791382,776.079834 1436.133179,774.564697 1435.304932,773.148987   C1399.985107,712.777588 1364.529053,652.485229 1329.483032,591.955383   C1325.471069,585.026184 1321.195801,582.396790 1313.110596,582.438354   C1246.466309,582.781128 1179.819580,582.561401 1113.173828,582.670715   C1090.385010,582.708130 1096.426025,580.039734 1085.388428,598.358215   C1079.748535,607.718567 1074.894043,617.552002 1069.684448,627.171631   C1051.782715,627.353882 1033.881348,627.600525 1015.979187,627.695312   C1004.366516,627.756775 992.752686,627.596741 980.164185,627.290833   C1001.790161,588.168823 1024.419556,549.308289 1046.940796,510.385284   C1048.820312,507.136810 1051.029907,505.345612 1054.874146,505.708435   C1056.855957,505.895447 1058.870728,505.730927 1060.870605,505.730896   C1159.865967,505.730347 1258.861572,505.836548 1357.855957,505.532715   C1365.941650,505.507935 1370.208984,508.139893 1374.202881,515.002258   C1424.476562,601.384277 1475.059448,687.586243 1525.549438,773.842407   C1526.214478,774.978394 1526.699951,776.219482 1527.546143,777.991516   C1515.761353,798.169006 1503.810425,818.536560 1491.953247,838.958618   C1480.415283,858.830994 1468.973511,878.759277 1456.906494,899.832825   C1454.920166,903.347778 1453.516724,905.692871 1452.113281,908.037964  z"/>
<path fill="#3BA4DB" opacity="1.000000" stroke="none" d=" M692.001282,791.368347   C694.628662,791.577820 697.255981,791.968079 699.883484,791.969666   C736.651428,791.992065 773.419312,791.961304 811.125122,791.850281   C810.262756,795.939087 808.829346,800.328552 806.601379,804.268921   C794.492371,825.685303 782.187195,846.990723 769.601562,869.231445   C769.253601,870.128540 768.779358,869.898987 768.779358,869.898987   C727.641968,869.862976 686.504517,869.826965 643.506226,869.860962   C628.991272,869.859192 616.296875,870.375000 603.697510,869.508423   C595.375244,868.936096 591.351074,872.402710 587.440735,879.186768   C562.669556,922.162292 537.458862,964.884338 512.422546,1007.707153   C501.517426,1026.359619 490.682037,1045.052856 479.700012,1063.925171   C481.768311,1067.711060 483.581024,1071.239258 485.580688,1074.658081   C518.693237,1131.270020 552.187561,1187.664185 584.631470,1244.656494   C590.511292,1254.985352 596.883789,1259.963379 608.391602,1259.296021   C619.952332,1258.625732 631.538940,1258.401489 643.114258,1257.981689   C652.614929,1273.758179 662.187622,1289.492065 671.589539,1305.327271   C677.305481,1314.954346 682.757935,1324.737793 688.492615,1335.166504   C655.695801,1335.983765 622.735229,1336.097168 589.774597,1336.181030   C576.153931,1336.215576 562.533081,1336.186890 548.836487,1336.186890   C495.743378,1245.432983 442.979279,1155.241577 389.706268,1064.180176   C442.661255,973.658875 495.714844,882.968994 549.016968,791.854309   C595.640137,791.854309 641.900940,791.854309 689.600342,791.755493   C691.359741,791.560547 691.680542,791.464417 692.001282,791.368347  z"/>
<path fill="#FEFEFF" opacity="1.000000" stroke="none" d=" M1453.004639,908.024780   C1453.516724,905.692871 1454.920166,903.347778 1456.714844,900.556030   C1458.269775,902.184143 1459.433472,904.258850 1460.810425,907.006165   C1458.647827,907.789612 1456.271851,907.900574 1453.004639,908.024780  z"/>
<path fill="#FCFCFD" opacity="1.000000" stroke="none" d=" M691.950745,790.857666   C691.680542,791.464417 691.359741,791.560547 690.537354,791.681274   C690.304199,791.084351 690.572632,790.462830 691.291626,789.587036   C691.794800,789.670776 691.847473,790.008850 691.950745,790.857666  z"/>
<path fill="#FFFFFF" opacity="1.000000" stroke="none" d=" M1003.954285,1392.880249   C992.721375,1393.101807 981.489380,1393.422241 970.255432,1393.521606   C953.373718,1393.670898 936.490540,1393.665283 918.646790,1393.817383   C917.270203,1393.865967 916.854919,1393.822510 916.033875,1393.019531   C914.114868,1389.019897 912.818054,1385.656006 911.049194,1382.562012   C904.959473,1371.910645 898.704712,1361.353516 892.543762,1350.813354   C894.056641,1348.012695 895.248657,1345.640869 896.586304,1343.354004   C945.682373,1259.421387 994.788391,1175.494629 1043.920776,1091.583252   C1045.075073,1089.611816 1046.544678,1087.825195 1048.603271,1085.975098   C1052.488159,1087.572021 1055.636963,1089.146118 1059.369751,1091.012207   C1058.157837,1086.588013 1057.089722,1082.688477 1056.939819,1078.601440   C1157.986694,1078.402222 1258.115112,1078.388062 1358.243652,1078.395630   C1360.227905,1078.395752 1362.212158,1078.651367 1364.139648,1079.617920   C1364.403809,1082.741211 1364.724731,1085.034424 1365.273315,1088.954102   C1368.546753,1086.356445 1370.435669,1084.857544 1372.889160,1083.771729   C1379.803955,1095.398315 1386.153931,1106.611572 1391.772217,1117.954468   C1390.225586,1118.604004 1389.052612,1118.929321 1388.647949,1119.672607   C1377.640991,1139.896118 1366.804688,1160.213257 1355.690430,1180.377197   C1353.556763,1184.248169 1351.417603,1188.916382 1344.939209,1187.802979   C1338.126831,1176.888550 1331.859741,1166.360596 1325.877808,1156.311523   C1323.874634,1156.155762 1322.881348,1156.011108 1321.888062,1156.010864   C1248.959961,1155.996826 1176.031616,1156.093140 1103.104614,1155.812744   C1096.930176,1155.788940 1094.378052,1158.508911 1091.678955,1163.139893   C1056.661133,1223.222046 1021.500366,1283.220947 986.401367,1343.255859   C984.923523,1345.783447 983.696716,1348.457886 982.544739,1350.691895   C989.967285,1364.012207 997.075256,1376.768066 1004.127686,1390.083374   C1004.032898,1391.388672 1003.993591,1392.134399 1003.954285,1392.880249  M1358.782104,1101.075439   C1360.908325,1098.045288 1363.530518,1095.187134 1362.680542,1089.253052   C1359.259521,1093.701538 1356.005737,1096.307373 1358.782104,1101.075439  M1073.059448,1112.138062   C1071.941895,1111.039307 1070.824219,1109.940552 1069.706543,1108.841919   C1069.145630,1109.285645 1068.584717,1109.729370 1068.023804,1110.173218   C1070.361572,1112.944702 1070.079224,1117.362427 1075.989746,1119.840820   C1074.891968,1116.728638 1074.290894,1115.024780 1073.059448,1112.138062  M1062.940552,1101.861938   C1064.058228,1102.960693 1065.175781,1104.059448 1066.293457,1105.158081   C1066.854370,1104.714355 1067.415283,1104.270630 1067.976196,1103.826782   C1065.638428,1101.055298 1065.920776,1096.637573 1060.010376,1094.159180   C1061.108154,1097.271362 1061.709106,1098.975220 1062.940552,1101.861938  M1077.099365,1126.070557   C1078.029785,1127.223145 1078.960327,1128.375732 1079.890747,1129.528320   C1080.513916,1129.119995 1081.137207,1128.711548 1081.760376,1128.303223   C1080.532227,1126.489258 1079.304077,1124.675415 1078.075806,1122.861450   C1077.594238,1123.548218 1077.112671,1124.234985 1077.099365,1126.070557  z"/>
<path fill="#FFFFFF" opacity="1.000000" stroke="none" d=" M1096.131592,973.635864   C1099.838501,972.620789 1103.488525,972.354309 1107.138550,972.352966   C1176.091309,972.328125 1245.044678,972.184265 1313.995605,972.542908   C1321.775513,972.583374 1326.052368,970.307495 1329.521606,963.482727   C1334.640015,953.413208 1340.824585,943.885498 1347.248901,934.388062   C1348.935181,937.776794 1350.372437,938.223145 1352.355225,935.381165   C1363.071411,953.371582 1373.803589,971.352478 1384.492432,989.359192   C1387.039185,993.649353 1389.441406,998.025391 1391.964233,1003.804077   C1392.040771,1006.242920 1392.063110,1007.239685 1392.085571,1008.236389   C1385.104980,1020.565857 1378.124390,1032.895386 1369.908936,1045.619141   C1367.114014,1047.189453 1365.553955,1048.365356 1363.994019,1049.541260   C1362.011963,1049.683716 1360.029785,1049.950684 1358.047729,1049.950684   C1258.645020,1049.952271 1159.242188,1049.931152 1058.918945,1049.723389   C1059.200439,1046.188232 1059.940430,1042.577271 1061.680420,1039.539185   C1072.317017,1020.967529 1083.284790,1002.584961 1093.852783,983.975098   C1095.388428,981.270752 1095.372559,977.685486 1096.131592,973.635864  z"/>
<path fill="#FEFEFF" opacity="1.000000" stroke="none" d=" M1350.637939,1196.017334   C1348.599854,1193.918701 1347.205200,1191.802612 1345.647461,1188.937988   C1351.417603,1188.916382 1353.556763,1184.248169 1355.690430,1180.377197   C1366.804688,1160.213257 1377.640991,1139.896118 1388.647949,1119.672607   C1389.052612,1118.929321 1390.225586,1118.604004 1391.772217,1117.954468   C1393.296997,1118.410889 1394.089966,1118.996826 1395.381470,1119.643311   C1398.423218,1123.262817 1397.010498,1126.500977 1395.140015,1129.761230   C1389.577148,1139.456787 1384.218994,1149.273560 1378.480469,1158.863281   C1372.070068,1169.575806 1365.247559,1180.041138 1358.787109,1190.724609   C1356.976685,1193.718384 1355.256470,1196.324463 1350.637939,1196.017334  z"/>
<path fill="#FEFEFF" opacity="1.000000" stroke="none" d=" M1392.719604,1008.111084   C1392.063110,1007.239685 1392.040771,1006.242920 1392.057617,1004.492859   C1392.958252,1003.847900 1393.819824,1003.956238 1395.331421,1004.005737   C1395.981812,1004.900085 1395.982056,1005.853271 1395.948486,1007.521545   C1395.060913,1008.152954 1394.207275,1008.069336 1392.719604,1008.111084  z"/>
<path fill="#FEFEFF" opacity="1.000000" stroke="none" d=" M1428.302490,1065.837891   C1427.582031,1065.063110 1427.503784,1064.249268 1427.422852,1062.822266   C1428.585327,1062.561035 1429.750488,1062.912964 1430.915527,1063.264893   C1430.258545,1064.109619 1429.601562,1064.954346 1428.302490,1065.837891  z"/>
<path fill="#FCFCFD" opacity="1.000000" stroke="none" d=" M1004.127686,1390.083374   C1004.755432,1390.093384 1005.327637,1390.662720 1006.193359,1391.789795   C1005.991638,1392.743530 1005.440002,1393.031738 1004.393188,1393.046265   C1003.993591,1392.134399 1004.032898,1391.388672 1004.127686,1390.083374  z"/>
<path fill="#FEFEFF" opacity="1.000000" stroke="none" d=" M1352.221191,934.746094   C1350.372437,938.223145 1348.935181,937.776794 1347.818604,933.975098   C1347.736572,932.895325 1347.778687,932.489502 1348.042847,931.509155   C1349.538818,931.993469 1350.812988,933.052307 1352.221191,934.746094  z"/>
<path fill="#FCFCFD" opacity="1.000000" stroke="none" d=" M1048.603271,1085.975098   C1049.158936,1082.555176 1049.836914,1078.603027 1055.350952,1078.603271   C1057.089722,1082.688477 1058.157837,1086.588013 1059.369751,1091.012207   C1055.636963,1089.146118 1052.488159,1087.572021 1048.603271,1085.975098  z"/>
<path fill="#FCFCFD" opacity="1.000000" stroke="none" d=" M1364.139648,1079.617920   C1367.770996,1077.710327 1370.678101,1078.227905 1372.248047,1082.741699   C1370.435669,1084.857544 1368.546753,1086.356445 1365.273315,1088.954102   C1364.724731,1085.034424 1364.403809,1082.741211 1364.139648,1079.617920  z"/>
<path fill="#FCFCFD" opacity="1.000000" stroke="none" d=" M1358.144653,1101.111206   C1356.005737,1096.307373 1359.259521,1093.701538 1362.680542,1089.253052   C1363.530518,1095.187134 1360.908325,1098.045288 1358.144653,1101.111206  z"/>
<path fill="#FCFCFD" opacity="1.000000" stroke="none" d=" M1073.374634,1112.729492   C1074.290894,1115.024780 1074.891968,1116.728638 1075.989746,1119.840820   C1070.079224,1117.362427 1070.361572,1112.944702 1068.023804,1110.173218   C1068.584717,1109.729370 1069.145630,1109.285645 1069.706543,1108.841919   C1070.824219,1109.940552 1071.941895,1111.039307 1073.374634,1112.729492  z"/>
<path fill="#FCFCFD" opacity="1.000000" stroke="none" d=" M1062.625366,1101.270508   C1061.709106,1098.975220 1061.108154,1097.271362 1060.010376,1094.159180   C1065.920776,1096.637573 1065.638428,1101.055298 1067.976196,1103.826782   C1067.415283,1104.270630 1066.854370,1104.714355 1066.293457,1105.158081   C1065.175781,1104.059448 1064.058228,1102.960693 1062.625366,1101.270508  z"/>
<path fill="#FCFCFD" opacity="1.000000" stroke="none" d=" M1076.865234,1125.496094   C1077.112671,1124.234985 1077.594238,1123.548218 1078.075928,1122.861450   C1079.304077,1124.675415 1080.532227,1126.489258 1081.760376,1128.303223   C1081.137207,1128.711548 1080.513916,1129.119995 1079.890747,1129.528320   C1078.960327,1128.375732 1078.029785,1127.223145 1076.865234,1125.496094  z"/>
<path fill="#FCFCFD" opacity="1.000000" stroke="none" d=" M1364.661987,1049.727905   C1365.553955,1048.365356 1367.114014,1047.189453 1369.353027,1046.012207   C1368.464722,1047.312256 1366.897339,1048.613403 1364.661987,1049.727905  z"/>
</svg>